<mxfile host="65bd71144e">
    <diagram id="Cd1Ttke_Hkr54BfL1GGT" name="Page-1">
        <mxGraphModel dx="1038" dy="798" grid="1" gridSize="10" guides="1" tooltips="1" connect="1" arrows="1" fold="1" page="1" pageScale="1" pageWidth="850" pageHeight="1100" math="0" shadow="0">
            <root>
                <mxCell id="0"/>
                <mxCell id="1" parent="0"/>
                <mxCell id="2" value="" style="verticalLabelPosition=bottom;verticalAlign=top;html=1;shadow=0;dashed=0;strokeWidth=1;shape=mxgraph.android.phone2;strokeColor=#c0c0c0;" vertex="1" parent="1">
                    <mxGeometry x="80" y="40" width="300" height="570" as="geometry"/>
                </mxCell>
                <mxCell id="5" value="&lt;font style=&quot;font-size: 23px;&quot;&gt;Wallet Value:&lt;/font&gt;" style="text;html=1;strokeColor=none;fillColor=none;align=center;verticalAlign=middle;whiteSpace=wrap;rounded=0;" vertex="1" parent="1">
                    <mxGeometry x="105" y="170" width="90" height="30" as="geometry"/>
                </mxCell>
                <mxCell id="6" value="&lt;font style=&quot;font-size: 32px;&quot;&gt;$32.17&lt;/font&gt;" style="rounded=0;whiteSpace=wrap;html=1;fontColor=#ABABAB;" vertex="1" parent="1">
                    <mxGeometry x="215" y="150" width="120" height="60" as="geometry"/>
                </mxCell>
                <mxCell id="4" value="Eagle Pay It Forward App" style="text;html=1;strokeColor=none;fillColor=#D5E8D4;align=center;verticalAlign=middle;whiteSpace=wrap;rounded=0;" vertex="1" parent="1">
                    <mxGeometry x="90" y="91" width="280" height="21" as="geometry"/>
                </mxCell>
                <mxCell id="12" value="NO SIM CARD&amp;nbsp; &amp;nbsp; &amp;nbsp; &amp;nbsp; &amp;nbsp; &amp;nbsp; &amp;nbsp; &amp;nbsp; &amp;nbsp; &amp;nbsp; &amp;nbsp; &amp;nbsp; &amp;nbsp; &amp;nbsp; &amp;nbsp; &amp;nbsp; &amp;nbsp; &amp;nbsp; &amp;nbsp; &amp;nbsp; &amp;nbsp; &amp;nbsp; 4:59 AM" style="text;html=1;strokeColor=none;fillColor=none;align=center;verticalAlign=middle;whiteSpace=wrap;rounded=0;" vertex="1" parent="1">
                    <mxGeometry x="90" y="65" width="290" height="30" as="geometry"/>
                </mxCell>
                <mxCell id="14" value="&lt;font style=&quot;font-size: 23px;&quot;&gt;Tokens&lt;/font&gt;" style="text;html=1;strokeColor=none;fillColor=none;align=center;verticalAlign=middle;whiteSpace=wrap;rounded=0;" vertex="1" parent="1">
                    <mxGeometry x="110" y="280" width="90" height="30" as="geometry"/>
                </mxCell>
                <mxCell id="15" value="&lt;span style=&quot;font-size: 32px;&quot;&gt;$0.00&lt;/span&gt;" style="rounded=0;whiteSpace=wrap;html=1;" vertex="1" parent="1">
                    <mxGeometry x="220" y="260" width="120" height="60" as="geometry"/>
                </mxCell>
                <mxCell id="16" value="&lt;span style=&quot;font-size: 28px;&quot;&gt;&lt;font color=&quot;#ababab&quot;&gt;Use Tokens...&lt;/font&gt;&lt;/span&gt;" style="rounded=1;html=1;shadow=0;dashed=0;whiteSpace=wrap;fontSize=10;fillColor=#E6E6E6;align=center;strokeColor=#B3B3B3;fontColor=#333333;" vertex="1" parent="1">
                    <mxGeometry x="120" y="334" width="220" height="50" as="geometry"/>
                </mxCell>
                <mxCell id="17" value="&lt;font color=&quot;#000000&quot; style=&quot;font-size: 28px;&quot;&gt;Refresh&lt;/font&gt;" style="rounded=1;html=1;shadow=0;dashed=0;whiteSpace=wrap;fontSize=10;fillColor=#E6E6E6;align=center;strokeColor=#B3B3B3;fontColor=#333333;" vertex="1" parent="1">
                    <mxGeometry x="120" y="410" width="220" height="50" as="geometry"/>
                </mxCell>
                <mxCell id="19" value="Shows current amount" style="text;html=1;strokeColor=none;fillColor=none;align=center;verticalAlign=middle;whiteSpace=wrap;rounded=0;fontSize=14;fontColor=#FF0000;" vertex="1" parent="1">
                    <mxGeometry x="15" y="65" width="60" height="30" as="geometry"/>
                </mxCell>
                <mxCell id="20" value="User enters amount here, then can hit&lt;br&gt;Use Tokens&lt;br&gt;button, neither&lt;br&gt;field is&lt;br&gt;enabled if&lt;br&gt;wallet value&lt;br&gt;is $0" style="text;html=1;strokeColor=none;fillColor=none;align=center;verticalAlign=middle;whiteSpace=wrap;rounded=0;fontSize=14;fontColor=#FF0000;" vertex="1" parent="1">
                    <mxGeometry x="5" y="210" width="70" height="150" as="geometry"/>
                </mxCell>
                <mxCell id="22" value="" style="endArrow=classic;html=1;fontSize=14;fontColor=#ABABAB;entryX=0.121;entryY=-0.3;entryDx=0;entryDy=0;entryPerimeter=0;" edge="1" parent="1" target="5">
                    <mxGeometry width="50" height="50" relative="1" as="geometry">
                        <mxPoint x="40" y="110" as="sourcePoint"/>
                        <mxPoint x="90" y="60" as="targetPoint"/>
                    </mxGeometry>
                </mxCell>
                <mxCell id="23" value="" style="endArrow=classic;html=1;fontSize=14;fontColor=#ABABAB;exitX=0.976;exitY=0.357;exitDx=0;exitDy=0;exitPerimeter=0;" edge="1" parent="1" source="20" target="14">
                    <mxGeometry width="50" height="50" relative="1" as="geometry">
                        <mxPoint x="90" y="270" as="sourcePoint"/>
                        <mxPoint x="140" y="220" as="targetPoint"/>
                    </mxGeometry>
                </mxCell>
                <mxCell id="26" value="" style="endArrow=classic;html=1;fontSize=14;fontColor=#ABABAB;exitX=1.024;exitY=0.385;exitDx=0;exitDy=0;exitPerimeter=0;" edge="1" parent="1" source="20">
                    <mxGeometry width="50" height="50" relative="1" as="geometry">
                        <mxPoint x="60" y="390" as="sourcePoint"/>
                        <mxPoint x="110" y="340" as="targetPoint"/>
                    </mxGeometry>
                </mxCell>
                <mxCell id="27" value="Re-reads wallet value" style="text;html=1;strokeColor=none;fillColor=none;align=center;verticalAlign=middle;whiteSpace=wrap;rounded=0;fontSize=14;fontColor=#FF0000;" vertex="1" parent="1">
                    <mxGeometry x="10" y="480" width="60" height="30" as="geometry"/>
                </mxCell>
                <mxCell id="28" value="" style="endArrow=classic;html=1;fontSize=14;fontColor=#ABABAB;" edge="1" parent="1">
                    <mxGeometry width="50" height="50" relative="1" as="geometry">
                        <mxPoint x="70" y="500" as="sourcePoint"/>
                        <mxPoint x="120" y="450" as="targetPoint"/>
                    </mxGeometry>
                </mxCell>
                <mxCell id="29" value="&lt;font color=&quot;#ff0000&quot;&gt;Director App, when opened on phone&lt;/font&gt;" style="text;html=1;strokeColor=none;fillColor=none;align=center;verticalAlign=middle;whiteSpace=wrap;rounded=0;fontSize=14;fontColor=#ABABAB;" vertex="1" parent="1">
                    <mxGeometry x="100" width="260" height="30" as="geometry"/>
                </mxCell>
                <mxCell id="47" value="" style="verticalLabelPosition=bottom;verticalAlign=top;html=1;shadow=0;dashed=0;strokeWidth=1;shape=mxgraph.android.phone2;strokeColor=#c0c0c0;" vertex="1" parent="1">
                    <mxGeometry x="515" y="41" width="300" height="570" as="geometry"/>
                </mxCell>
                <mxCell id="50" value="Eagle Pay It Forward App" style="text;html=1;strokeColor=none;fillColor=#D5E8D4;align=center;verticalAlign=middle;whiteSpace=wrap;rounded=0;" vertex="1" parent="1">
                    <mxGeometry x="525" y="92" width="280" height="21" as="geometry"/>
                </mxCell>
                <mxCell id="51" value="NO SIM CARD&amp;nbsp; &amp;nbsp; &amp;nbsp; &amp;nbsp; &amp;nbsp; &amp;nbsp; &amp;nbsp; &amp;nbsp; &amp;nbsp; &amp;nbsp; &amp;nbsp; &amp;nbsp; &amp;nbsp; &amp;nbsp; &amp;nbsp; &amp;nbsp; &amp;nbsp; &amp;nbsp; &amp;nbsp; &amp;nbsp; &amp;nbsp; &amp;nbsp; 4:59 AM" style="text;html=1;strokeColor=none;fillColor=none;align=center;verticalAlign=middle;whiteSpace=wrap;rounded=0;" vertex="1" parent="1">
                    <mxGeometry x="525" y="66" width="290" height="30" as="geometry"/>
                </mxCell>
                <mxCell id="63" value="&lt;font color=&quot;#ff0000&quot;&gt;Director App, when Use Tokens button clicked&amp;nbsp;&lt;/font&gt;" style="text;html=1;strokeColor=none;fillColor=none;align=center;verticalAlign=middle;whiteSpace=wrap;rounded=0;fontSize=14;fontColor=#ABABAB;" vertex="1" parent="1">
                    <mxGeometry x="517.5" width="305" height="30" as="geometry"/>
                </mxCell>
                <mxCell id="64" value="" style="childLayout=tableLayout;recursiveResize=0;shadow=0;fillColor=none;fontSize=14;fontColor=#000000;" vertex="1" parent="1">
                    <mxGeometry x="577" y="251" width="180" height="140" as="geometry"/>
                </mxCell>
                <mxCell id="65" value="" style="shape=tableRow;horizontal=0;startSize=0;swimlaneHead=0;swimlaneBody=0;top=0;left=0;bottom=0;right=0;dropTarget=0;collapsible=0;recursiveResize=0;expand=0;fontStyle=0;fillColor=none;strokeColor=inherit;fontSize=14;fontColor=#000000;" vertex="1" parent="64">
                    <mxGeometry width="180" height="47" as="geometry"/>
                </mxCell>
                <mxCell id="66" value="" style="connectable=0;recursiveResize=0;strokeColor=inherit;fillColor=none;align=center;whiteSpace=wrap;html=1;fontSize=14;fontColor=#000000;" vertex="1" parent="65">
                    <mxGeometry width="60" height="47" as="geometry">
                        <mxRectangle width="60" height="47" as="alternateBounds"/>
                    </mxGeometry>
                </mxCell>
                <mxCell id="67" value="" style="connectable=0;recursiveResize=0;strokeColor=inherit;fillColor=none;align=center;whiteSpace=wrap;html=1;fontSize=14;fontColor=#000000;" vertex="1" parent="65">
                    <mxGeometry x="60" width="60" height="47" as="geometry">
                        <mxRectangle width="60" height="47" as="alternateBounds"/>
                    </mxGeometry>
                </mxCell>
                <mxCell id="68" value="" style="connectable=0;recursiveResize=0;strokeColor=inherit;fillColor=none;align=center;whiteSpace=wrap;html=1;fontSize=14;fontColor=#000000;" vertex="1" parent="65">
                    <mxGeometry x="120" width="60" height="47" as="geometry">
                        <mxRectangle width="60" height="47" as="alternateBounds"/>
                    </mxGeometry>
                </mxCell>
                <mxCell id="69" style="shape=tableRow;horizontal=0;startSize=0;swimlaneHead=0;swimlaneBody=0;top=0;left=0;bottom=0;right=0;dropTarget=0;collapsible=0;recursiveResize=0;expand=0;fontStyle=0;fillColor=none;strokeColor=inherit;fontSize=14;fontColor=#000000;" vertex="1" parent="64">
                    <mxGeometry y="47" width="180" height="46" as="geometry"/>
                </mxCell>
                <mxCell id="70" value="" style="connectable=0;recursiveResize=0;strokeColor=inherit;fillColor=none;align=center;whiteSpace=wrap;html=1;fontSize=14;fontColor=#000000;" vertex="1" parent="69">
                    <mxGeometry width="60" height="46" as="geometry">
                        <mxRectangle width="60" height="46" as="alternateBounds"/>
                    </mxGeometry>
                </mxCell>
                <mxCell id="71" value="" style="connectable=0;recursiveResize=0;strokeColor=inherit;fillColor=none;align=center;whiteSpace=wrap;html=1;fontSize=14;fontColor=#000000;" vertex="1" parent="69">
                    <mxGeometry x="60" width="60" height="46" as="geometry">
                        <mxRectangle width="60" height="46" as="alternateBounds"/>
                    </mxGeometry>
                </mxCell>
                <mxCell id="72" value="" style="connectable=0;recursiveResize=0;strokeColor=inherit;fillColor=none;align=center;whiteSpace=wrap;html=1;fontSize=14;fontColor=#000000;" vertex="1" parent="69">
                    <mxGeometry x="120" width="60" height="46" as="geometry">
                        <mxRectangle width="60" height="46" as="alternateBounds"/>
                    </mxGeometry>
                </mxCell>
                <mxCell id="73" style="shape=tableRow;horizontal=0;startSize=0;swimlaneHead=0;swimlaneBody=0;top=0;left=0;bottom=0;right=0;dropTarget=0;collapsible=0;recursiveResize=0;expand=0;fontStyle=0;fillColor=none;strokeColor=inherit;fontSize=14;fontColor=#000000;" vertex="1" parent="64">
                    <mxGeometry y="93" width="180" height="47" as="geometry"/>
                </mxCell>
                <mxCell id="74" value="" style="connectable=0;recursiveResize=0;strokeColor=inherit;fillColor=none;align=center;whiteSpace=wrap;html=1;fontSize=14;fontColor=#000000;" vertex="1" parent="73">
                    <mxGeometry width="60" height="47" as="geometry">
                        <mxRectangle width="60" height="47" as="alternateBounds"/>
                    </mxGeometry>
                </mxCell>
                <mxCell id="75" value="" style="connectable=0;recursiveResize=0;strokeColor=inherit;fillColor=none;align=center;whiteSpace=wrap;html=1;fontSize=14;fontColor=#000000;" vertex="1" parent="73">
                    <mxGeometry x="60" width="60" height="47" as="geometry">
                        <mxRectangle width="60" height="47" as="alternateBounds"/>
                    </mxGeometry>
                </mxCell>
                <mxCell id="76" value="" style="connectable=0;recursiveResize=0;strokeColor=inherit;fillColor=none;align=center;whiteSpace=wrap;html=1;fontSize=14;fontColor=#000000;" vertex="1" parent="73">
                    <mxGeometry x="120" width="60" height="47" as="geometry">
                        <mxRectangle width="60" height="47" as="alternateBounds"/>
                    </mxGeometry>
                </mxCell>
                <mxCell id="77" value="" style="shape=ext;double=1;rounded=0;whiteSpace=wrap;html=1;fontSize=14;fontColor=#000000;fillColor=#000000;" vertex="1" parent="1">
                    <mxGeometry x="577" y="251" width="45" height="30" as="geometry"/>
                </mxCell>
                <mxCell id="78" value="" style="shape=ext;double=1;rounded=0;whiteSpace=wrap;html=1;fontSize=14;fontColor=#000000;fillColor=#000000;" vertex="1" parent="1">
                    <mxGeometry x="617" y="281" width="30" height="30" as="geometry"/>
                </mxCell>
                <mxCell id="79" value="" style="shape=ext;double=1;rounded=0;whiteSpace=wrap;html=1;fontSize=14;fontColor=#000000;fillColor=#000000;" vertex="1" parent="1">
                    <mxGeometry x="617" y="325" width="45" height="30" as="geometry"/>
                </mxCell>
                <mxCell id="80" value="" style="shape=ext;double=1;rounded=0;whiteSpace=wrap;html=1;fontSize=14;fontColor=#000000;fillColor=#000000;" vertex="1" parent="1">
                    <mxGeometry x="667" y="351" width="45" height="30" as="geometry"/>
                </mxCell>
                <mxCell id="81" value="" style="shape=ext;double=1;rounded=0;whiteSpace=wrap;html=1;fontSize=14;fontColor=#000000;fillColor=#000000;" vertex="1" parent="1">
                    <mxGeometry x="712" y="361" width="45" height="30" as="geometry"/>
                </mxCell>
                <mxCell id="82" value="" style="shape=ext;double=1;rounded=0;whiteSpace=wrap;html=1;fontSize=14;fontColor=#000000;fillColor=#000000;" vertex="1" parent="1">
                    <mxGeometry x="712" y="251" width="45" height="30" as="geometry"/>
                </mxCell>
                <mxCell id="83" value="" style="shape=ext;double=1;rounded=0;whiteSpace=wrap;html=1;fontSize=14;fontColor=#000000;fillColor=#000000;" vertex="1" parent="1">
                    <mxGeometry x="577" y="361" width="45" height="30" as="geometry"/>
                </mxCell>
                <mxCell id="84" value="" style="shape=ext;double=1;rounded=0;whiteSpace=wrap;html=1;fontSize=14;fontColor=#000000;fillColor=#000000;" vertex="1" parent="1">
                    <mxGeometry x="657" y="306" width="45" height="30" as="geometry"/>
                </mxCell>
                <mxCell id="86" value="&lt;font style=&quot;font-size: 21px;&quot;&gt;Tokens to use: $13.75&lt;/font&gt;" style="text;html=1;strokeColor=none;fillColor=none;align=center;verticalAlign=middle;whiteSpace=wrap;rounded=0;" vertex="1" parent="1">
                    <mxGeometry x="577" y="141" width="235" height="30" as="geometry"/>
                </mxCell>
                <mxCell id="87" value="&lt;font style=&quot;font-size: 21px;&quot;&gt;Your wallet will have: $21.52&lt;/font&gt;" style="text;html=1;strokeColor=none;fillColor=none;align=center;verticalAlign=middle;whiteSpace=wrap;rounded=0;" vertex="1" parent="1">
                    <mxGeometry x="515" y="171" width="300" height="30" as="geometry"/>
                </mxCell>
                <mxCell id="88" value="&lt;font color=&quot;#000000&quot; style=&quot;font-size: 28px;&quot;&gt;Confirm&lt;/font&gt;" style="rounded=1;html=1;shadow=0;dashed=0;whiteSpace=wrap;fontSize=10;fillColor=#E6E6E6;align=center;strokeColor=#B3B3B3;fontColor=#333333;" vertex="1" parent="1">
                    <mxGeometry x="577" y="421" width="183" height="50" as="geometry"/>
                </mxCell>
                <mxCell id="89" value="&lt;font color=&quot;#000000&quot; style=&quot;font-size: 28px;&quot;&gt;Cancel&lt;/font&gt;" style="rounded=1;html=1;shadow=0;dashed=0;whiteSpace=wrap;fontSize=10;fillColor=#E6E6E6;align=center;strokeColor=#B3B3B3;fontColor=#333333;" vertex="1" parent="1">
                    <mxGeometry x="580.75" y="481" width="179.25" height="50" as="geometry"/>
                </mxCell>
                <mxCell id="90" value="" style="verticalLabelPosition=bottom;verticalAlign=top;html=1;shadow=0;dashed=0;strokeWidth=1;shape=mxgraph.android.phone2;strokeColor=#c0c0c0;" vertex="1" parent="1">
                    <mxGeometry x="370" y="620" width="252" height="490" as="geometry"/>
                </mxCell>
                <mxCell id="92" value="NO SIM CARD&amp;nbsp; &amp;nbsp; &amp;nbsp; &amp;nbsp; &amp;nbsp; &amp;nbsp; &amp;nbsp; &amp;nbsp; &amp;nbsp; &amp;nbsp; 4:59 AM" style="text;html=1;strokeColor=none;fillColor=none;align=center;verticalAlign=middle;whiteSpace=wrap;rounded=0;" vertex="1" parent="1">
                    <mxGeometry x="392" y="640" width="210" height="30" as="geometry"/>
                </mxCell>
                <mxCell id="93" value="&lt;font color=&quot;#ff0000&quot;&gt;Director App, when the Use Tokens button clicked&amp;nbsp;&lt;/font&gt;" style="text;html=1;strokeColor=none;fillColor=none;align=center;verticalAlign=middle;whiteSpace=wrap;rounded=0;fontSize=14;fontColor=#ABABAB;" vertex="1" parent="1">
                    <mxGeometry x="115" y="650" width="255" height="30" as="geometry"/>
                </mxCell>
                <mxCell id="115" value="&lt;font style=&quot;font-size: 16px;&quot;&gt;Tokens to use: $13.75&lt;/font&gt;" style="text;html=1;strokeColor=none;fillColor=none;align=center;verticalAlign=middle;whiteSpace=wrap;rounded=0;" vertex="1" parent="1">
                    <mxGeometry x="377" y="670" width="235" height="30" as="geometry"/>
                </mxCell>
                <mxCell id="116" value="&lt;font style=&quot;font-size: 16px;&quot;&gt;&lt;b style=&quot;font-size: 20px;&quot;&gt;&lt;font style=&quot;font-size: 20px;&quot; color=&quot;#ff0000&quot;&gt;SHOW THIS TO YOUR&lt;br&gt;BARTENDER&lt;/font&gt;&lt;/b&gt;&lt;br&gt;&lt;/font&gt;" style="text;html=1;strokeColor=none;fillColor=none;align=center;verticalAlign=middle;whiteSpace=wrap;rounded=0;" vertex="1" parent="1">
                    <mxGeometry x="382" y="720" width="220" height="60" as="geometry"/>
                </mxCell>
                <mxCell id="120" value="" style="childLayout=tableLayout;recursiveResize=0;shadow=0;fillColor=none;fontSize=14;fontColor=#000000;" vertex="1" parent="1">
                    <mxGeometry x="406" y="795" width="180" height="140" as="geometry"/>
                </mxCell>
                <mxCell id="121" value="" style="shape=tableRow;horizontal=0;startSize=0;swimlaneHead=0;swimlaneBody=0;top=0;left=0;bottom=0;right=0;dropTarget=0;collapsible=0;recursiveResize=0;expand=0;fontStyle=0;fillColor=none;strokeColor=inherit;fontSize=14;fontColor=#000000;" vertex="1" parent="120">
                    <mxGeometry width="180" height="47" as="geometry"/>
                </mxCell>
                <mxCell id="122" value="" style="connectable=0;recursiveResize=0;strokeColor=inherit;fillColor=none;align=center;whiteSpace=wrap;html=1;fontSize=14;fontColor=#000000;" vertex="1" parent="121">
                    <mxGeometry width="60" height="47" as="geometry">
                        <mxRectangle width="60" height="47" as="alternateBounds"/>
                    </mxGeometry>
                </mxCell>
                <mxCell id="123" value="" style="connectable=0;recursiveResize=0;strokeColor=inherit;fillColor=none;align=center;whiteSpace=wrap;html=1;fontSize=14;fontColor=#000000;" vertex="1" parent="121">
                    <mxGeometry x="60" width="100" height="47" as="geometry">
                        <mxRectangle width="100" height="47" as="alternateBounds"/>
                    </mxGeometry>
                </mxCell>
                <mxCell id="124" value="" style="connectable=0;recursiveResize=0;strokeColor=inherit;fillColor=none;align=center;whiteSpace=wrap;html=1;fontSize=14;fontColor=#000000;" vertex="1" parent="121">
                    <mxGeometry x="160" width="20" height="47" as="geometry">
                        <mxRectangle width="20" height="47" as="alternateBounds"/>
                    </mxGeometry>
                </mxCell>
                <mxCell id="125" style="shape=tableRow;horizontal=0;startSize=0;swimlaneHead=0;swimlaneBody=0;top=0;left=0;bottom=0;right=0;dropTarget=0;collapsible=0;recursiveResize=0;expand=0;fontStyle=0;fillColor=none;strokeColor=inherit;fontSize=14;fontColor=#000000;" vertex="1" parent="120">
                    <mxGeometry y="47" width="180" height="46" as="geometry"/>
                </mxCell>
                <mxCell id="126" value="" style="connectable=0;recursiveResize=0;strokeColor=inherit;fillColor=none;align=center;whiteSpace=wrap;html=1;fontSize=14;fontColor=#000000;" vertex="1" parent="125">
                    <mxGeometry width="60" height="46" as="geometry">
                        <mxRectangle width="60" height="46" as="alternateBounds"/>
                    </mxGeometry>
                </mxCell>
                <mxCell id="127" value="" style="connectable=0;recursiveResize=0;strokeColor=inherit;fillColor=none;align=center;whiteSpace=wrap;html=1;fontSize=14;fontColor=#000000;" vertex="1" parent="125">
                    <mxGeometry x="60" width="100" height="46" as="geometry">
                        <mxRectangle width="100" height="46" as="alternateBounds"/>
                    </mxGeometry>
                </mxCell>
                <mxCell id="128" value="" style="connectable=0;recursiveResize=0;strokeColor=inherit;fillColor=none;align=center;whiteSpace=wrap;html=1;fontSize=14;fontColor=#000000;" vertex="1" parent="125">
                    <mxGeometry x="160" width="20" height="46" as="geometry">
                        <mxRectangle width="20" height="46" as="alternateBounds"/>
                    </mxGeometry>
                </mxCell>
                <mxCell id="129" style="shape=tableRow;horizontal=0;startSize=0;swimlaneHead=0;swimlaneBody=0;top=0;left=0;bottom=0;right=0;dropTarget=0;collapsible=0;recursiveResize=0;expand=0;fontStyle=0;fillColor=none;strokeColor=inherit;fontSize=14;fontColor=#000000;" vertex="1" parent="120">
                    <mxGeometry y="93" width="180" height="47" as="geometry"/>
                </mxCell>
                <mxCell id="130" value="" style="connectable=0;recursiveResize=0;strokeColor=inherit;fillColor=none;align=center;whiteSpace=wrap;html=1;fontSize=14;fontColor=#000000;" vertex="1" parent="129">
                    <mxGeometry width="60" height="47" as="geometry">
                        <mxRectangle width="60" height="47" as="alternateBounds"/>
                    </mxGeometry>
                </mxCell>
                <mxCell id="131" value="" style="connectable=0;recursiveResize=0;strokeColor=inherit;fillColor=none;align=center;whiteSpace=wrap;html=1;fontSize=14;fontColor=#000000;" vertex="1" parent="129">
                    <mxGeometry x="60" width="100" height="47" as="geometry">
                        <mxRectangle width="100" height="47" as="alternateBounds"/>
                    </mxGeometry>
                </mxCell>
                <mxCell id="132" value="" style="connectable=0;recursiveResize=0;strokeColor=inherit;fillColor=none;align=center;whiteSpace=wrap;html=1;fontSize=14;fontColor=#000000;" vertex="1" parent="129">
                    <mxGeometry x="160" width="20" height="47" as="geometry">
                        <mxRectangle width="20" height="47" as="alternateBounds"/>
                    </mxGeometry>
                </mxCell>
                <mxCell id="133" value="" style="shape=ext;double=1;rounded=0;whiteSpace=wrap;html=1;fontSize=14;fontColor=#000000;fillColor=#000000;" vertex="1" parent="1">
                    <mxGeometry x="406" y="795" width="45" height="30" as="geometry"/>
                </mxCell>
                <mxCell id="134" value="" style="shape=ext;double=1;rounded=0;whiteSpace=wrap;html=1;fontSize=14;fontColor=#000000;fillColor=#000000;" vertex="1" parent="1">
                    <mxGeometry x="446" y="825" width="30" height="30" as="geometry"/>
                </mxCell>
                <mxCell id="135" value="" style="shape=ext;double=1;rounded=0;whiteSpace=wrap;html=1;fontSize=14;fontColor=#000000;fillColor=#000000;" vertex="1" parent="1">
                    <mxGeometry x="446" y="869" width="45" height="30" as="geometry"/>
                </mxCell>
                <mxCell id="136" value="" style="shape=ext;double=1;rounded=0;whiteSpace=wrap;html=1;fontSize=14;fontColor=#000000;fillColor=#000000;" vertex="1" parent="1">
                    <mxGeometry x="496" y="895" width="45" height="30" as="geometry"/>
                </mxCell>
                <mxCell id="137" value="" style="shape=ext;double=1;rounded=0;whiteSpace=wrap;html=1;fontSize=14;fontColor=#000000;fillColor=#000000;" vertex="1" parent="1">
                    <mxGeometry x="541" y="905" width="45" height="30" as="geometry"/>
                </mxCell>
                <mxCell id="138" value="" style="shape=ext;double=1;rounded=0;whiteSpace=wrap;html=1;fontSize=14;fontColor=#000000;fillColor=#000000;" vertex="1" parent="1">
                    <mxGeometry x="541" y="795" width="45" height="30" as="geometry"/>
                </mxCell>
                <mxCell id="139" value="" style="shape=ext;double=1;rounded=0;whiteSpace=wrap;html=1;fontSize=14;fontColor=#000000;fillColor=#000000;" vertex="1" parent="1">
                    <mxGeometry x="406" y="905" width="45" height="30" as="geometry"/>
                </mxCell>
                <mxCell id="140" value="" style="shape=ext;double=1;rounded=0;whiteSpace=wrap;html=1;fontSize=14;fontColor=#000000;fillColor=#000000;" vertex="1" parent="1">
                    <mxGeometry x="486" y="850" width="45" height="30" as="geometry"/>
                </mxCell>
                <mxCell id="143" value="&lt;font style=&quot;font-size: 16px;&quot;&gt;Your wallet will have: $21.52&lt;/font&gt;" style="text;html=1;strokeColor=none;fillColor=none;align=center;verticalAlign=middle;whiteSpace=wrap;rounded=0;" vertex="1" parent="1">
                    <mxGeometry x="382" y="690" width="220" height="30" as="geometry"/>
                </mxCell>
                <mxCell id="144" value="&lt;font style=&quot;font-size: 19px;&quot;&gt;Bartender has seen&lt;/font&gt;" style="rounded=1;html=1;shadow=0;dashed=0;whiteSpace=wrap;fontSize=10;fillColor=#e51400;align=center;strokeColor=#B20000;fontColor=#ffffff;" vertex="1" parent="1">
                    <mxGeometry x="413" y="950" width="177" height="40" as="geometry"/>
                </mxCell>
                <mxCell id="145" value="&lt;font color=&quot;#000000&quot; style=&quot;font-size: 19px;&quot;&gt;Cancel&lt;/font&gt;" style="rounded=1;html=1;shadow=0;dashed=0;whiteSpace=wrap;fontSize=10;fillColor=#E6E6E6;align=center;strokeColor=#B3B3B3;fontColor=#333333;" vertex="1" parent="1">
                    <mxGeometry x="416.75" y="1010" width="173.25" height="40" as="geometry"/>
                </mxCell>
            </root>
        </mxGraphModel>
    </diagram>
</mxfile>